<svg width="783" height="553" viewBox="0 0 783 553" fill="none" xmlns="http://www.w3.org/2000/svg">
<path fill-rule="evenodd" clip-rule="evenodd" d="M223.214 1.11734C190.404 8.67934 171.231 32.1013 158.648 79.9903C154.456 95.9423 149.052 108.722 143.01 116.97C140.932 119.808 132.754 128.886 124.837 137.144C107.844 154.869 102.781 161.385 97.6294 172.158C91.3604 185.266 89.4234 194.725 89.9614 209.585C90.4394 222.769 92.1604 229.705 97.3944 239.557C98.6794 241.976 99.7314 244.73 99.7314 245.677C99.7314 248.212 103.556 259.741 105.259 262.341C108.82 267.776 110.587 267.558 60.4814 267.87C14.2594 268.158 14.2294 268.159 10.5494 270.447C6.14136 273.188 1.03236 280.56 0.0803625 285.552C-0.540637 288.808 2.52436 365.833 6.27136 441.158C9.20236 500.09 10.7344 534.336 10.7324 540.939C10.7314 546.175 11.0884 547.858 12.2984 548.322C13.1604 548.653 14.3204 548.469 14.8754 547.914C15.5554 547.234 15.2154 532.723 13.8364 503.531C12.7084 479.676 11.3154 448.233 10.7394 433.658C9.50036 402.316 7.18437 349.979 5.66937 319.123C4.00537 285.219 3.95336 286.661 7.02136 281.426C8.50236 278.9 11.2334 275.893 13.0904 274.745C16.4434 272.673 17.0624 272.658 98.8494 272.664C155.969 272.667 182.458 273.008 185.231 273.776C190.337 275.188 196.169 281.404 198.14 287.532C199.699 292.379 201.285 302.839 204.754 331.158C206.568 345.972 212.566 388.737 231.22 519.865C233.701 537.303 235.731 551.816 235.731 552.115C235.731 552.413 236.892 552.658 238.31 552.658C240.593 552.658 240.826 552.342 240.332 549.908C240.025 548.395 239.064 541.533 238.197 534.658C237.33 527.783 235.737 516.115 234.657 508.728C233.247 499.078 233.006 495.106 233.803 494.614C234.413 494.237 237.908 493.639 241.571 493.286C256.909 491.807 282.782 483.569 300.634 474.481C308.006 470.728 314.203 467.658 314.406 467.658C314.61 467.658 317.272 471.487 320.322 476.166C326.076 484.994 331.437 495.909 336.184 508.461C338.247 513.913 339.362 515.678 340.589 515.427C343.47 514.838 342.312 508.615 337.384 498.212C333.01 488.979 331.936 485.658 333.322 485.658C333.648 485.658 341.185 487.442 350.072 489.622C384.65 498.103 406.431 506.86 421.456 518.321C430.421 525.159 435.846 533.027 439.355 544.281C441.485 551.113 442.335 552.658 443.962 552.658C445.776 552.658 445.893 552.225 445.248 547.908C442.8 531.528 430.477 516.202 411.709 506.197L402.231 501.145L402.273 496.401C402.296 493.793 402.408 483.78 402.523 474.151L402.731 456.644L471.481 456.901L540.231 457.158L540.731 504.658C541.222 551.325 541.266 552.158 543.231 552.158C545.196 552.158 545.24 551.325 545.731 504.658L546.231 457.158H552.231H558.231L558.491 504.976L558.75 552.795L560.991 552.476L563.231 552.158L563.491 504.403L563.75 456.649L665.991 456.903L768.231 457.158L768.731 504.658C769.122 541.8 769.504 552.136 770.481 552.058C771.169 552.003 772.181 551.89 772.731 551.808C773.381 551.71 773.731 535.231 773.731 504.677V457.696L776.481 457.117C782.374 455.878 782.209 456.451 782.504 436.18C782.692 423.189 782.424 416.993 781.631 416.038C780.714 414.932 775.537 414.658 755.609 414.658C741.926 414.658 730.731 414.453 730.731 414.202C730.731 413.952 731.856 412.089 733.231 410.063C734.606 408.037 735.731 405.767 735.731 405.018C735.731 404.123 736.962 403.658 739.33 403.658C748.406 403.658 754.615 396.971 755.474 386.273C756.376 375.03 750.957 367.613 740.547 365.842C736.567 365.165 736.192 364.837 735.731 361.633L735.231 358.158L708.462 357.892L681.694 357.625L680.947 359.892C680.536 361.138 680.431 372.283 680.715 384.658C681.203 405.958 681.351 407.326 683.481 410.312C684.718 412.047 685.731 413.739 685.731 414.071C685.731 414.403 661.318 414.559 631.481 414.417L577.231 414.158L576.937 405.675C576.53 393.953 575.424 392.831 563.883 392.445L555.315 392.158L549.538 376.658C546.36 368.133 541.501 355.308 538.74 348.158C535.979 341.008 533.723 334.356 533.726 333.376C533.731 331.685 536.822 331.599 594.144 331.697C661.511 331.812 658.473 332.112 663.144 324.88C666.134 320.251 666.403 318.78 667.746 299.658C668.345 291.133 669.475 277.408 670.257 269.158C671.038 260.908 672.153 247.408 672.733 239.158C673.314 230.908 675.328 205.258 677.21 182.158C683.983 99.0273 683.961 100.543 678.478 95.4223C671.855 89.2343 671.449 89.1583 645.231 89.1583C560.56 89.1583 361.751 90.9684 359.146 91.7634C355.533 92.8654 351.288 97.0203 349.829 100.882C348.62 104.083 346.526 124.276 343.731 159.695C341.938 182.415 338.627 222.36 337.123 239.408C336.53 246.131 335.349 247.297 333.578 242.908C325.658 223.281 318.818 214.255 307.56 208.572L301.524 205.525L302.152 201.338C303.022 195.535 301.054 182.565 298.112 174.72C296.758 171.111 292.962 163.288 289.675 157.335L283.698 146.512L285.768 143.606C291.678 135.306 297.466 117.109 298.475 103.658C298.993 96.7413 299.337 95.8154 302.899 91.7504C315.414 77.4674 317.576 58.3143 308.736 40.0503C305.572 33.5153 303.326 30.5433 297.276 24.8933C284.979 13.4093 273.39 6.53935 259.731 2.63735C250.117 -0.109652 231.838 -0.870656 223.214 1.11734ZM287.912 48.9083C289.851 55.4553 289.296 69.1293 286.825 75.7043C285.678 78.7543 281.528 86.1793 277.601 92.2043C266.101 109.848 262.818 117.507 262.755 126.826C262.742 128.844 262.443 131.244 262.092 132.16C260.914 135.23 259.762 131.527 259.758 124.658C259.752 112.66 262.744 104.999 274.13 87.8653C283.759 73.3773 285.112 69.4624 285.177 55.9094C285.207 49.7224 285.551 44.6594 285.942 44.6594C286.334 44.6584 287.22 46.5713 287.912 48.9083ZM659.678 94.1313C661.269 94.9533 663.452 97.5163 664.624 99.9383C666.686 104.197 666.698 104.556 665.28 120.715C664.486 129.759 663.14 146.158 662.289 157.158C661.438 168.158 659.843 188.408 658.745 202.158C657.648 215.908 655.604 242.683 654.203 261.658C649.95 319.281 650.175 317.226 647.748 320.634C643.156 327.083 653.556 326.658 500.262 326.658H360.693L361.342 324.07C361.7 322.647 362.499 317.36 363.12 312.32L364.247 303.158L501.358 303.539C660.343 303.981 641.977 305.533 643.07 291.568C643.432 286.942 644.381 275.733 645.18 266.658C645.978 257.583 647.115 243.408 647.705 235.158C648.296 226.908 649.667 210.033 650.753 197.658C651.838 185.283 653.179 166.383 653.731 155.658C654.284 144.933 655.161 132.108 655.681 127.158C657.8 106.959 657.863 105.203 656.53 103.426C655.303 101.79 647.128 101.742 509.384 102.559C384.68 103.298 363.328 103.632 362.098 104.862C361.094 105.866 360.385 110.41 359.747 119.914C359.245 127.402 358.36 138.17 357.781 143.843C357.201 149.516 356.057 162.483 355.238 172.658C354.42 182.833 353.052 199.708 352.199 210.158C351.346 220.608 350.029 236.748 349.273 246.025C348.516 255.301 347.455 263.334 346.915 263.874C346.271 264.518 344.984 263.239 343.183 260.167L340.435 255.477L341.643 239.317C342.308 230.43 343.5 216.408 344.292 208.158C345.61 194.425 348.04 163.369 350.785 125.158C352.097 106.905 352.995 103.194 357.097 99.0923L360.284 95.9053L444.258 95.1913C521.538 94.5353 637.233 93.2093 651.031 92.8213C654.488 92.7243 657.98 93.2533 659.678 94.1313ZM673.525 97.1384C678.801 101.578 679.078 103.497 677.304 123.32C676.426 133.131 675.482 144.308 675.208 148.158C674.933 152.008 674.043 163.033 673.229 172.658C672.415 182.283 671.061 199.158 670.22 210.158C661.18 328.401 662.004 322.221 654.78 325.864C650.678 327.932 649.248 327.324 651.202 324.343C653.274 321.18 654.507 314.092 655.668 298.658C656.226 291.233 657.8 272.108 659.164 256.158C660.528 240.208 662.13 219.958 662.724 211.158C663.855 194.405 666.004 166.528 667.734 146.158C670.14 117.837 670.767 103.882 669.752 101.214C668.481 97.8703 668.433 94.6583 669.654 94.6583C670.162 94.6583 671.904 95.7744 673.525 97.1384ZM292.234 113.952C290.595 122.056 285.98 134.575 283.274 138.261C281.94 140.076 281.836 140.041 280.845 137.447C280.276 135.956 279.513 132.495 279.149 129.755C278.583 125.481 278.92 123.851 281.524 118.286C285.027 110.801 293.027 101.351 293.563 104.065C293.745 104.989 293.147 109.438 292.234 113.952ZM652.731 109C652.731 110.896 652.052 120.933 651.222 131.303C647.701 175.319 643.694 226.491 641.21 259.158C639.747 278.408 638.356 295.172 638.12 296.412L637.691 298.665L500.617 298.412L363.543 298.158L361.208 290.792C359.923 286.741 357.232 280.769 355.227 277.521L351.582 271.615L353.159 253.887C354.027 244.136 355.191 230.983 355.747 224.658C357.119 209.028 360.462 168.205 362.215 145.658C363.006 135.483 363.96 123.257 364.334 118.488C364.708 113.72 365.307 109.344 365.665 108.765C366.111 108.042 406.358 107.467 493.774 106.935C563.875 106.508 628.318 106.022 636.981 105.855L652.731 105.552V109ZM186.131 122.254C185.99 134.864 182.975 144.728 173.17 164.666C168.596 173.965 163.691 184.799 162.269 188.741C159.12 197.472 157.369 212.973 158.213 224.658C158.647 230.659 158.525 232.68 157.799 231.532C155.585 228.032 153.731 217.811 153.731 209.108C153.731 194.922 156.156 187.177 168.12 163.158C173.873 151.608 179.265 139.908 180.104 137.158C182.1 130.61 183.731 121.272 183.731 116.391C183.731 113.709 184.121 112.625 184.981 112.921C185.866 113.225 186.202 115.953 186.131 122.254ZM144.412 129.015C141.848 134.159 134.356 145.595 127.285 155.158C107.977 181.274 99.5844 199.733 98.0704 219.408C96.8654 235.077 94.3394 227.356 94.3894 208.158C94.4554 183.076 101.878 168.065 127.245 141.715C134.953 133.709 142.817 124.986 144.72 122.331C149.789 115.261 149.638 118.532 144.412 129.015ZM278.731 144.227C278.731 145.775 276.237 147.831 275.389 146.983C274.503 146.096 274.55 141.172 275.454 140.269C276.272 139.45 278.731 142.419 278.731 144.227ZM245.13 150.408C250.143 165.678 252.075 177.038 252.143 191.658C252.24 212.489 249.292 221.267 234.627 243.807C229.743 251.313 224.827 259.602 223.702 262.226C219.842 271.231 217.396 282.75 217.312 292.324C217.267 297.366 216.925 301.797 216.55 302.172C214.841 303.881 213.533 294.34 213.932 283.069C214.303 272.575 214.737 270.189 217.573 263.016C219.344 258.538 222.962 251.338 225.612 247.016C228.262 242.694 232.734 235.398 235.549 230.802C241.723 220.721 244.35 213.984 245.848 204.385C247.4 194.445 246.375 171.603 243.806 158.873C242.665 153.216 241.731 147.928 241.731 147.123C241.731 144.024 243.639 145.869 245.13 150.408ZM287.559 163.908C295.493 179.905 296.917 184.363 297.502 195.057L297.99 203.955L293.64 203.26C288.729 202.474 287.768 201.469 287.746 197.092C287.716 191.077 285.516 182.221 281.156 170.565C278.722 164.059 276.731 157.684 276.731 156.397C276.731 153.879 278.407 151.658 280.307 151.658C280.954 151.658 284.217 157.17 287.559 163.908ZM140.936 170.359C134.64 182.621 130.09 194.015 128.078 202.558C126.276 210.211 126.098 232.695 127.766 242.158C128.347 245.458 129.097 249.69 129.433 251.563C130.547 257.782 127.921 253.985 125.242 245.503C117.955 222.436 121.221 196.726 134.211 174.895C139.469 166.059 144.643 159.237 145.464 160.058C145.74 160.334 143.703 164.97 140.936 170.359ZM293.578 208.314C295.579 208.849 295.835 209.388 295.319 211.97C294.625 215.436 287.807 228.067 287.042 227.303C286.764 227.024 287.03 224.493 287.633 221.678C288.237 218.863 288.731 214.557 288.731 212.109C288.731 207.471 289.164 207.132 293.578 208.314ZM309.066 214.756C317.713 220.484 319.765 223.563 331.048 247.744C334.199 254.496 339.67 263.794 344.163 270.031C354.828 284.839 357.821 291.553 358.483 302.157C358.937 309.446 357.997 318.432 356.099 324.932C355.557 326.787 345.583 334.658 343.774 334.658C341.984 334.658 342.064 314.034 343.86 312.166C345.735 310.217 346.847 314.115 346.347 320.886C345.822 328.014 346.571 329.675 349.15 327.096C351.071 325.175 351.184 315.831 349.347 310.751C347.909 306.773 344.76 305.185 342.128 307.11C340.163 308.547 338.906 317.283 338.793 330.286C338.753 334.85 338.263 337.801 337.43 338.493C336.714 339.087 333.002 340.909 329.18 342.543L322.231 345.513L313.61 337.085C307.584 331.195 304.257 328.658 302.56 328.658C297.43 328.658 296.26 333.2 299.981 338.668C303.123 343.285 307.159 346.093 309.403 345.224C310.987 344.61 310.662 344.024 306.966 340.837C304.62 338.813 302.707 336.37 302.716 335.408C302.746 331.917 305.179 333.49 312.224 341.56C317.781 347.924 317.559 348.228 306.629 349.218C299.773 349.839 298.692 349.672 293.9 347.243C281.996 341.212 277.901 333.782 274.558 312.158C271.71 293.739 271.973 294.658 269.568 294.658C267.541 294.658 267.474 294.981 268.099 301.71C269.124 312.736 273.284 330.843 276.045 336.29C278.392 340.923 283.687 346.521 290.105 351.158L292.874 353.158L291.755 360.086C290.921 365.246 290.927 367.717 291.778 369.771C292.896 372.47 296.971 374.658 300.88 374.658C303.115 374.658 303.118 374.794 301.219 387.245C299.592 397.908 299.903 406.663 302.307 417.894C304.32 427.302 306.846 433.602 313.219 445.113C316.251 450.588 318.731 455.844 318.731 456.794C318.731 457.745 317.493 459.4 315.981 460.474C309.329 465.196 287.224 475.869 276.231 479.668C263.74 483.984 240.525 489.613 235.096 489.642L231.961 489.658L230.789 481.408C230.144 476.87 226.942 454.825 223.674 432.417C220.405 410.009 217.731 390.787 217.731 389.7C217.731 388.259 219.532 386.836 224.391 384.441C228.054 382.635 231.988 379.891 233.134 378.343L235.218 375.529L228.316 355.085C224.52 343.842 221.68 334.376 222.006 334.05C222.331 333.724 225.469 334.178 228.978 335.058C232.488 335.938 239.282 336.658 244.076 336.658C254.291 336.658 255.773 335.399 251.19 330.616C248.596 327.908 248.508 327.562 249.994 325.92C251.379 324.39 251.456 323.055 250.563 316.153C249.988 311.718 249.791 301.954 250.119 294.227C250.8 278.168 249.873 280.196 264.788 262.158C273.584 251.52 283.731 236.474 283.731 234.068C283.731 233.423 285.419 231.616 287.481 230.052C292.613 226.161 294.297 224.091 297.771 217.408C301.276 210.665 302.466 210.385 309.066 214.756ZM32.2094 280.694C31.8514 281.273 32.1054 282.404 32.7744 283.209C33.8204 284.471 42.5154 284.638 95.6104 284.416C156.478 284.161 157.231 284.134 157.231 282.158C157.231 280.182 156.478 280.155 95.0454 279.9C52.3754 279.724 32.6544 279.973 32.2094 280.694ZM180.725 295.908C180.722 296.596 182.064 307.958 183.709 321.158C185.354 334.358 188.29 359.783 190.234 377.658C192.178 395.533 195.548 424.783 197.723 442.658C202.356 480.747 209.662 547.27 209.721 551.908C209.727 552.321 210.856 552.658 212.231 552.658C215.329 552.658 215.318 553.117 212.743 530.658C211.639 521.033 209.363 501.008 207.684 486.158C203.72 451.098 199.082 412.028 197.238 398.158C196.433 392.108 195.107 380.408 194.29 372.158C193.473 363.908 191.64 347.258 190.218 335.158C188.795 323.058 187.234 309.783 186.749 305.658C186.265 301.533 185.564 297.37 185.193 296.408C184.424 294.417 180.734 294.004 180.725 295.908ZM245.519 313.251C245.87 318.72 245.693 320.753 244.909 320.268C242.601 318.842 240.612 306.111 242.414 304.308C243.944 302.778 245.051 305.968 245.519 313.251ZM484.398 310.325C484.031 310.691 483.731 312.502 483.731 314.349C483.731 317.034 484.245 317.903 486.296 318.683C489.883 320.047 492.731 318.338 492.731 314.823C492.731 313.302 492.191 311.518 491.531 310.858C490.248 309.575 485.503 309.22 484.398 310.325ZM229.647 321.552C233.237 326.085 233.376 326.658 230.886 326.658C228.546 326.658 226.085 323.953 225.201 320.408C224.224 316.494 226.003 316.951 229.647 321.552ZM216.804 335.063C217.463 337.865 220.652 347.793 223.89 357.125C227.129 366.457 229.548 374.692 229.267 375.425C228.986 376.158 226.224 377.916 223.13 379.333C216.522 382.358 216.278 382.169 215.353 373.314C214.999 369.928 213.581 359.733 212.202 350.658C210.823 341.583 209.436 332.458 209.12 330.38L208.546 326.602L212.076 328.285C215.087 329.721 215.782 330.718 216.804 335.063ZM364.031 332.279C368.813 334.7 370.731 336.707 370.731 339.287C370.731 341.808 366.477 344.658 362.715 344.658C359.277 344.658 356.866 346.473 354.721 350.677C351.703 356.593 349.083 357.91 341.943 357.102L335.985 356.428L332.908 360.901C328.548 367.237 325.222 368.411 319.191 365.743C313.202 363.094 312.52 363.123 308.883 366.184C304.582 369.803 300.401 371.087 297.672 369.627C295.679 368.56 295.523 367.892 296.01 362.516C296.722 354.671 297.7 353.661 304.603 353.643C315.686 353.614 329.927 348.821 344.792 340.117C348.95 337.682 353.416 334.558 354.716 333.174C357.469 330.244 359.606 330.038 364.031 332.279ZM525.038 356.47C529.385 369.841 532.69 381.033 532.383 381.339C532.076 381.646 529.666 380.329 527.028 378.411C518.26 372.039 507.532 366.831 500.731 365.645C495.073 364.658 493.259 364.768 486.731 366.493C482.606 367.583 478.924 368.179 478.549 367.816C477.092 366.411 467.669 332.314 468.581 331.748C469.104 331.424 480.243 331.383 493.334 331.658L517.135 332.158L525.038 356.47ZM526.942 331.908C527.818 332.596 531.539 341.258 535.212 351.158C538.885 361.058 543.863 374.102 546.274 380.144C548.685 386.187 550.284 391.505 549.826 391.963C549.369 392.42 547.285 392.651 545.196 392.476L541.398 392.158L537.663 380.158C535.609 373.558 531.409 360.845 528.329 351.907C525.25 342.968 522.731 334.531 522.731 333.157C522.731 330.434 524.424 329.932 526.942 331.908ZM464.125 336.408C464.979 339.02 467.279 346.783 469.236 353.658C471.192 360.533 473.037 366.955 473.335 367.928C473.74 369.247 472.972 370.077 470.327 371.182C467.197 372.49 465.614 372.493 457.003 371.208C451.628 370.406 443.058 369.439 437.957 369.058C429.102 368.399 428.491 368.199 424.457 364.653C422.133 362.61 417.756 359.65 414.731 358.076C409.618 355.415 408.274 355.188 395.647 354.844C383.197 354.505 381.462 354.683 374.87 356.975L367.679 359.476L365.635 355.47C363.317 350.927 363.698 348.658 366.777 348.658C369.473 348.658 374.423 343.734 375.32 340.159C375.783 338.314 375.451 336.454 374.315 334.531L372.618 331.658H417.594H462.57L464.125 336.408ZM363.321 360.158C366.554 367.204 363.824 366.573 408.971 370.705C431.7 372.786 453.915 375.042 458.337 375.719C466.2 376.923 466.607 376.88 476.81 373.786C496.676 367.76 502.393 368.371 518.747 378.262C531.346 385.881 536.341 389.861 535.341 391.481C534.137 393.429 530.541 392.824 524.731 389.697C516.815 385.437 512.611 385.671 500.837 391.028C490.323 395.811 485.89 396.929 478.062 396.774C474.3 396.699 468.445 398.135 456.562 402.048C447.58 405.005 437.981 407.91 435.231 408.503C432.481 409.096 423.256 411.149 414.731 413.066C393.347 417.874 377.533 419.983 362.231 420.069C349.695 420.139 348.997 420.031 342.663 417.037C332.595 412.279 325.505 403.862 313.785 382.755L308.57 373.364L311.122 370.812C313.642 368.293 313.719 368.282 317.236 369.959C324.129 373.246 332.104 371.15 336.076 365.008C338.088 361.896 338.566 361.688 343.276 361.873C349.586 362.12 353.79 360.422 356.737 356.437C358.941 353.455 359.079 353.411 360.485 355.249C361.288 356.299 362.564 358.508 363.321 360.158ZM409.192 360.096C413.67 361.444 418.731 365.005 418.731 366.807C418.731 367.248 417.494 367.411 415.981 367.171C414.468 366.93 405.356 366.004 395.731 365.113C376.045 363.289 373.202 362.86 374.182 361.859C377.05 358.932 401.271 357.712 409.192 360.096ZM731.731 382.708C731.731 405.785 731.439 407.201 725.69 412.039C722.656 414.592 722.223 414.658 708.559 414.658C692.649 414.658 690.37 413.919 686.825 407.612C684.883 404.157 684.731 402.35 684.731 382.772V361.658H708.231H731.731V382.708ZM741.788 370.657C743.744 371.201 746.64 372.998 748.224 374.651C752.092 378.688 752.892 387.485 749.834 392.354C747.243 396.479 743.608 398.82 739.504 399.008C735.159 399.207 735.096 396.579 739.418 395.459C744.161 394.23 746.731 390.36 746.731 384.446C746.731 380.317 746.25 379.023 743.808 376.581C742.2 374.973 739.95 373.658 738.808 373.658C737.398 373.658 736.731 373.016 736.731 371.658C736.731 369.365 736.967 369.318 741.788 370.657ZM740.508 379.215C742.157 380.369 742.731 381.775 742.731 384.658C742.731 387.541 742.157 388.947 740.508 390.101C739.286 390.957 737.936 391.658 737.508 391.658C737.081 391.658 736.731 388.508 736.731 384.658C736.731 380.808 737.081 377.658 737.508 377.658C737.936 377.658 739.286 378.359 740.508 379.215ZM314.32 392.809C317.007 397.392 318.622 401.159 318.115 401.656C317.629 402.132 314.355 402.842 310.841 403.234L304.45 403.948L305.177 394.66C305.577 389.552 306.142 384.75 306.434 383.989C307.261 381.835 309.078 383.868 314.32 392.809ZM516.231 391.658C516.571 392.208 515.896 392.658 514.731 392.658C513.566 392.658 512.891 392.208 513.231 391.658C513.571 391.108 514.246 390.658 514.731 390.658C515.216 390.658 515.891 391.108 516.231 391.658ZM551.73 396.75C551.731 397.076 547.794 398.549 542.981 400.023C534.36 402.663 533.871 402.698 509.731 402.406C496.256 402.242 486.131 401.756 487.231 401.325C488.331 400.894 491.694 399.555 494.705 398.35C499.843 396.292 501.76 396.158 525.954 396.158C540.13 396.158 551.73 396.425 551.73 396.75ZM572.231 406.158V414.158H552.231H532.231L531.918 410.907C531.536 406.946 531.237 407.077 550.731 402.689C558.706 400.894 565.906 399.032 566.731 398.551C567.556 398.071 569.131 397.786 570.231 397.918C572.044 398.136 572.231 398.905 572.231 406.158ZM325.632 410.215C326.787 412.172 327.731 413.987 327.731 414.249C327.731 414.511 322.894 414.598 316.981 414.442L306.231 414.158L305.926 411.53C305.639 409.052 305.955 408.844 311.426 407.908C322.166 406.07 323.295 406.254 325.632 410.215ZM526.548 408.201C527.326 408.464 527.735 409.775 527.548 411.402L527.231 414.158L481.304 414.418C456.044 414.561 435.711 414.336 436.118 413.918C436.525 413.5 441.354 411.808 446.849 410.158L456.839 407.158L491.035 407.457C509.843 407.622 525.824 407.957 526.548 408.201ZM342.269 421.836C350.584 424.784 352.133 425.008 363.731 424.939C372.374 424.888 380.705 424.079 390.731 422.318L405.231 419.771L487.95 419.259C534.443 418.972 570.904 419.129 571.206 419.618C571.502 420.097 571.446 427.727 571.081 436.573L570.418 452.658H449.2C382.529 452.658 326.671 452.396 325.069 452.076C322.676 451.597 321.344 450.036 317.6 443.326C313.221 435.478 307.731 422.938 307.731 420.783C307.731 420.208 310.726 419.594 314.481 419.4C332.131 418.485 333.044 418.565 342.269 421.836ZM778.231 435.658V452.158L676.981 452.413L575.731 452.668V436.329C575.731 427.343 576.033 419.689 576.402 419.32C576.772 418.951 622.334 418.763 677.652 418.903L778.231 419.158V435.658ZM380.353 459.287C381.064 462.123 380.274 491.448 379.464 492.258C379.194 492.528 372.073 490.7 363.64 488.196C355.206 485.692 344.464 482.944 339.768 482.089C327.995 479.947 327.913 479.912 326.074 476.337C325.175 474.589 323.155 471.593 321.585 469.68C318.38 465.775 318.005 463.874 320.268 463.005C321.113 462.681 322.475 461.12 323.294 459.537L324.782 456.658H352.238H379.693L380.353 459.287ZM397.501 478.408C397.649 490.096 397.593 499.658 397.375 499.658C397.158 499.658 394.518 498.569 391.509 497.239L386.038 494.819L385.387 487.117C385.029 482.881 385.03 474.275 385.389 467.992L386.041 456.567L391.636 456.863L397.231 457.158L397.501 478.408Z" fill="black"/>
</svg>
