<svg width="792" height="563" viewBox="0 0 792 563" fill="none" xmlns="http://www.w3.org/2000/svg">
<g filter="url(#filter0_d_1_19)">
<path fill-rule="evenodd" clip-rule="evenodd" d="M229.002 0.261938C227.627 0.524938 222.452 2.06493 217.502 3.68493C206.757 7.20193 193.861 16.2519 186.564 25.3969C177.644 36.5759 167.916 58.3529 163.506 77.0169C156.814 105.341 150.353 116.164 124.041 143.132C108.415 159.148 102.727 167.501 97.825 181.632C94.652 190.78 94.529 191.707 94.516 206.632C94.503 221.129 94.68 222.606 97.259 229.46C98.775 233.491 100.512 237.716 101.118 238.849C101.724 239.981 103.29 244.905 104.597 249.789C105.904 254.674 108.107 260.799 109.493 263.401L112.011 268.132L64.257 268.656C37.992 268.945 16.391 269.282 16.255 269.406C16.119 269.53 14.174 271.289 11.932 273.314C5.58999 279.044 4.002 283.052 4 293.342C3.998 302.108 6.679 364.243 9.515 421.132C11.468 460.315 13.955 512.143 14.817 531.632C15.483 546.707 15.564 547.141 17.752 547.452C19.939 547.762 20.002 547.524 20.01 538.952C20.014 534.101 19.344 519.107 18.521 505.632C17.697 492.157 16.329 462.682 15.48 440.132C13.587 389.874 11.501 341.66 9.897 311.132L8.689 288.132L11.381 282.846C16.495 272.801 8.269 273.584 105.679 273.876C190.391 274.131 190.871 274.143 193.679 276.228C201.654 282.148 203.71 288.886 207.533 321.632C208.914 333.457 213.861 369.907 218.525 402.632C223.19 435.357 227.923 468.882 229.043 477.132C230.163 485.382 232.402 500.907 234.02 511.632C235.637 522.357 237.65 535.796 238.493 541.497C239.336 547.197 240.272 552.26 240.573 552.747C241.318 553.953 245.002 553.873 245.002 552.651C245.002 550.196 238.465 502.781 237.467 497.996C237.055 496.021 237.645 495.768 245.261 494.659C265.283 491.743 288.428 484.165 306.8 474.511C313.014 471.245 318.488 468.814 318.963 469.108C320.227 469.889 331.302 488.137 334.758 495.132C336.388 498.432 338.711 504.135 339.918 507.806C341.126 511.477 342.707 514.972 343.432 515.574C344.765 516.68 348.002 516.043 348.002 514.674C348.002 512.872 345.474 506.413 341.236 497.386C338.72 492.026 336.947 487.354 337.297 487.004C338.079 486.222 358.867 491.359 376.81 496.768C393.433 501.779 405.177 506.486 414.371 511.82C432.285 522.214 440.041 531.364 444.519 547.382C445.864 552.195 446.695 553.632 448.134 553.632C450.627 553.632 450.596 549.766 448.038 541.487C445.5 533.274 441.294 526.734 433.652 519.116C427.779 513.262 416.297 505.676 409.968 503.47L407.002 502.436V479.959V457.481L475.752 458.101L544.502 458.721L545.002 505.926L545.502 553.132L547.742 553.45L549.983 553.769L550.242 505.95L550.502 458.132H556.502H562.502L562.762 505.882L563.021 553.632H565.502H567.983L568.242 505.931L568.502 458.231L616.002 458.37C642.127 458.447 688.14 458.537 718.252 458.571L773.002 458.632V505.525C773.002 547.468 773.17 552.482 774.592 553.028C775.467 553.364 776.592 553.385 777.092 553.076C777.618 552.751 778.002 532.684 778.002 505.573V458.632H781.445C787.422 458.632 788.002 456.705 788.002 436.844C788.002 426.801 787.566 418.686 786.967 417.566C785.981 415.725 784.59 415.632 757.887 415.632H729.843L730.54 412.382C731.496 407.926 731.449 407.97 735.977 407.362C746.524 405.948 754.081 396.943 754.135 385.727C754.192 373.65 747.471 365.351 735.502 362.72C732.822 362.13 732.449 361.583 732.002 357.596L731.502 353.132L702.233 352.867L672.964 352.602L672.16 354.867C671.172 357.652 672.325 411.45 673.424 413.882C674.172 415.535 671.655 415.632 628.109 415.632H582.002V407.209C582.002 399.576 581.756 398.493 579.378 395.667L576.753 392.548L568.509 393.217L560.264 393.886L558.664 389.509C557.784 387.102 554.305 377.707 550.932 368.632C540.733 341.191 539.28 337.227 538.543 334.831L537.835 332.53L598.251 332.693C665.155 332.875 662.222 333.143 667.395 326.361C670.681 322.053 671.693 316.905 672.455 300.632C672.803 293.207 673.95 277.457 675.006 265.632C676.061 253.807 677.382 237.832 677.941 230.132C678.5 222.432 680.077 203.532 681.446 188.132C682.816 172.732 684.394 152.707 684.955 143.632C685.515 134.557 686.503 122.857 687.15 117.632C687.797 112.407 688.017 106.495 687.64 104.494C686.607 99.0219 683.071 94.5429 677.531 91.6909C671.531 88.6019 690.611 88.7469 505.119 90.3849C366.205 91.6109 363.679 91.6679 360.473 93.6499C356.84 95.8949 354.637 98.8359 353.684 102.713C352.747 106.519 350.25 130.396 348.462 152.632C345.558 188.735 342.721 222.397 341.086 240.132L340.349 248.132L337.594 242.132C330.133 225.879 327.725 221.657 323.298 217.063C320.66 214.325 315.837 210.745 312.579 209.108L306.656 206.132L306.87 198.132C307.18 186.489 304.382 176.924 296.012 161.013L289.028 147.737L292.904 140.435C298.229 130.402 300.774 122.013 302.836 107.691C304.496 96.1589 304.801 95.2399 308.433 90.8129C310.546 88.2389 313.676 83.2069 315.388 79.6319C318.338 73.4749 318.498 72.5259 318.423 61.6319C318.333 48.5699 316.793 43.2599 310.085 32.8819C305.518 25.8149 293.625 15.4899 283.151 9.49595C271.391 2.76795 262.096 0.444935 245.502 0.0869346C237.802 -0.0790654 230.377 -6.23167e-05 229.002 0.261938ZM292.873 53.9489C295.01 66.5049 291.902 77.7679 282.476 91.6319C270.856 108.721 267.521 116.112 266.373 127.313C265.61 134.764 264.033 133.968 264.032 126.132C264.031 114.748 267.959 104.464 277.766 90.1779C284.651 80.1479 288.319 72.0859 289.957 63.3869C291.103 57.2969 291.019 54.8989 289.366 46.6319C288.898 44.2929 288.961 44.2489 290.343 45.9489C291.155 46.9479 292.294 50.5479 292.873 53.9489ZM664.119 95.3599C665.728 96.3109 667.964 98.9869 669.088 101.309C671.088 105.442 671.099 105.857 669.613 121.331C668.779 130.021 667.394 146.582 666.535 158.132C665.676 169.682 664.51 184.757 663.944 191.632C663.377 198.507 662.058 215.382 661.011 229.132C659.964 242.882 658.621 260.432 658.027 268.132C657.432 275.832 656.348 290.261 655.618 300.197C654.136 320.364 653.461 322.337 646.889 325.69C643.173 327.585 639.733 327.632 503.974 327.632C371.948 327.632 364.895 327.543 365.418 325.882C366.692 321.83 368.002 313.019 368.002 308.496V303.632L503.268 304.287C577.664 304.648 640.171 304.635 642.172 304.26C644.172 303.885 646.079 302.874 646.409 302.014C646.739 301.153 647.456 295.428 648.002 289.291C650.4 262.351 657.594 170.69 659.003 149.132C659.614 139.782 660.76 126.383 661.55 119.356C662.701 109.119 662.739 106.165 661.744 104.495L660.502 102.411L515.002 103.083C434.977 103.453 368.756 103.97 367.844 104.232C365.343 104.951 364.775 107.129 363.961 119.132C363.55 125.182 362.723 135.532 362.123 142.132C361.524 148.732 360.559 159.982 359.98 167.132C357.507 197.663 354.968 227.863 354.053 237.632C353.512 243.407 353.047 251.282 353.02 255.132C352.978 261.219 351.827 266.053 350.766 264.603C350.576 264.344 349.142 262.397 347.58 260.276L344.738 256.419L346.42 236.276C347.346 225.197 348.97 207.582 350.03 197.132C351.09 186.682 352.657 167.557 353.513 154.632C356.811 104.796 357.147 102.801 362.95 98.6689C365.564 96.8079 369.387 96.7239 482.076 96.0649C579.842 95.4929 622.067 94.9429 656.348 93.7939C659.4 93.6919 662.276 94.2719 664.119 95.3599ZM678.543 98.9729C680.381 100.811 682.194 103.548 682.572 105.057C682.951 106.565 682.526 114.399 681.627 122.466C680.729 130.532 679.556 144.107 679.021 152.632C678.486 161.157 677.81 170.382 677.517 173.132C677.225 175.882 674.973 204.682 672.514 237.132C665.884 324.601 666.158 322.756 659.291 326.031C655.56 327.81 654.018 327.538 655.756 325.406C658.454 322.096 659.23 315.942 662.985 268.132C663.59 260.432 664.73 246.257 665.518 236.632C666.307 227.007 667.224 214.407 667.557 208.632C667.89 202.857 669.008 188.457 670.042 176.632C674.005 131.305 675.37 106.459 674.15 101.895C673.518 99.5339 673.002 97.1599 673.002 96.6179C673.002 94.7149 675.234 95.6639 678.543 98.9729ZM295.598 117.874C292.763 129.023 288.217 139.868 286.601 139.338C285.138 138.859 282.956 127.796 283.7 124.632C284.765 120.104 288.724 113.211 293.148 108.182C297.238 103.532 297.519 103.381 297.789 105.682C297.946 107.03 296.961 112.516 295.598 117.874ZM657.002 111.099C657.002 113.555 656.134 125.818 655.072 138.349C652.687 166.508 651.325 183.491 649.436 208.632C648.63 219.357 647.333 235.107 646.555 243.632C645.776 252.157 644.632 266.332 644.012 275.132C643.391 283.932 642.658 293.045 642.382 295.382L641.879 299.632L607.691 299.631C506.663 299.63 367.791 298.234 367.476 297.216C367.29 296.62 366.451 293.657 365.611 290.632C364.771 287.607 362.424 282.432 360.397 279.132C356.106 272.149 356.026 270.658 358.566 244.632C359.398 236.107 360.493 223.957 360.999 217.632C363.158 190.652 365.119 167.082 366.45 152.132C367.233 143.332 368.406 130.057 369.055 122.632C369.705 115.207 370.351 109.002 370.492 108.843C370.632 108.684 433.692 108.195 510.625 107.758C587.557 107.321 651.964 106.888 653.752 106.797C656.958 106.634 657.002 106.692 657.002 111.099ZM190.617 123.528C189.483 136.824 186.467 146.06 176.541 166.632C163.904 192.823 162.541 197.488 162.519 214.632C162.51 222.057 162.848 229.37 163.271 230.882C163.708 232.444 163.643 233.632 163.121 233.632C161.247 233.632 158.574 218.254 158.601 207.632C158.641 192.26 160.997 185.72 178.06 153.632C183.134 144.091 186.439 133.621 188.09 121.855C189.685 110.491 191.619 111.772 190.617 123.528ZM148.071 130.335C145.285 135.724 139.589 144.632 135.413 150.132C113.649 178.801 104.687 196.799 102.542 216.142C102.176 219.437 101.604 223.482 101.27 225.132L100.663 228.132L99.932 225.632C98.643 221.221 98.977 199.416 100.439 192.516C103.973 175.845 112.177 162.738 131.812 142.395C139.383 134.55 147.124 125.96 149.014 123.305C154.202 116.02 153.756 119.343 148.071 130.335ZM417.681 126.394C381.428 126.638 378.882 126.771 379.194 128.394C379.504 130.004 382.415 130.151 418.765 130.394C457.107 130.649 458.002 130.611 458.002 128.703C458.002 127.629 457.665 126.611 457.252 126.441C456.839 126.271 439.033 126.25 417.681 126.394ZM394.182 136.587C394.493 138.489 395.962 138.56 448.598 139.21C499.12 139.835 502.737 139.766 503.351 138.165C503.713 137.223 503.755 136.042 503.446 135.542C503.12 135.013 480.03 134.632 448.373 134.632C394.841 134.632 393.869 134.667 394.182 136.587ZM282.027 142.197C283.092 145 281.636 149.142 279.952 148.101C278.882 147.44 278.691 143.607 279.609 141.214C280.445 139.036 280.894 139.219 282.027 142.197ZM393.669 144.299C390.991 146.976 393.671 147.397 417.927 148.11C431.636 148.513 443.338 148.543 443.93 148.176C444.683 147.711 444.695 146.927 443.97 145.571C442.986 143.734 441.655 143.632 418.633 143.632C405.27 143.632 394.035 143.932 393.669 144.299ZM248.52 149.022C249.3 150.887 251.527 158.561 253.469 166.076C256.498 177.791 257 181.336 256.987 190.936C256.962 209.685 252.289 224.02 240.504 241.499C226.342 262.501 221.654 275.091 221.559 292.38C221.528 298.016 221.185 302.628 220.797 302.63C217.945 302.639 217.632 276.67 220.388 268.632C223.331 260.048 228.429 249.767 233.89 241.401C241.838 229.226 246.783 219.615 248.698 212.62C251.438 202.612 251.159 171.918 248.196 157.331C245.743 145.256 245.796 145.632 246.553 145.632C246.856 145.632 247.741 147.158 248.52 149.022ZM291.277 163.382C299.066 178.386 302.002 187.618 302.002 197.104V204.723L298.252 204.046C293.204 203.135 293.002 202.962 293.002 199.531C293.002 193.839 289.904 181.597 285.919 171.544C280.671 158.304 280.172 155.712 282.538 153.982C283.553 153.239 284.68 152.632 285.041 152.632C285.402 152.632 288.208 157.469 291.277 163.382ZM405.602 153.365C405.272 153.695 405.002 154.565 405.002 155.299C405.002 156.394 415.169 156.632 462.002 156.632C518.399 156.632 519.002 156.611 519.002 154.625C519.002 152.639 518.423 152.619 462.602 152.692C431.582 152.732 405.932 153.035 405.602 153.365ZM146.143 168.305C140.734 177.446 133.548 196.168 131.439 206.613C129.286 217.279 130.043 236.785 133.013 247.171C134.91 253.802 134.879 256.602 132.944 253.603C132.422 252.794 130.806 248.532 129.353 244.132C125.473 232.384 124.881 214.179 127.98 201.902C131.262 188.898 140.056 171.369 147.809 162.376C150.871 158.824 150.073 161.664 146.143 168.305ZM417.341 163.19C417.009 164.057 417.134 165.074 417.619 165.449C418.105 165.825 441.002 165.907 468.502 165.632C512.058 165.196 518.502 164.939 518.502 163.632C518.502 162.322 512.134 162.099 468.224 161.873C423.218 161.641 417.883 161.779 417.341 163.19ZM298.859 209.522C300.894 210.812 299.536 215.284 294.863 222.691C292.627 226.233 291.114 228.007 291.499 226.632C291.885 225.257 292.41 221.207 292.666 217.632C292.923 214.057 293.314 210.57 293.536 209.882C293.998 208.449 296.86 208.256 298.859 209.522ZM313.246 215.364C320.627 220.355 324.702 226.115 333.355 243.781C338.028 253.324 344.1 264.282 346.848 268.132C359.736 286.19 363.032 294.157 362.966 307.092C362.917 316.884 360.745 325.242 357.311 328.855C354.198 332.13 349.14 335.103 348.229 334.192C347.315 333.279 346.676 317.066 347.435 314.043C348.675 309.101 350.41 313.098 350.294 320.63C350.181 327.979 351.355 330.237 353.654 327.094C356.514 323.182 354.64 308.579 351.031 306.647C345.824 303.861 343.783 308.75 343.22 325.359L342.772 338.585L335.349 342.109C331.266 344.046 327.538 345.632 327.064 345.632C326.59 345.632 323.936 343.152 321.166 340.121C311.595 329.648 306.84 326.937 303.646 330.131C301.204 332.573 301.64 335.832 305.035 340.518C308.809 345.729 312.433 347.63 314.552 345.511C315.853 344.21 315.493 343.658 311.515 340.854C309.033 339.105 307.002 336.956 307.002 336.079C307.002 333.431 309.207 334.82 315.381 341.358L321.26 347.583L318.566 348.608C317.084 349.171 312.49 349.632 308.356 349.632C301.391 349.632 300.442 349.367 295.387 346.012C285.684 339.571 282.436 332.764 278.985 311.632C276.18 294.458 276.23 294.632 274.09 294.632C273.059 294.632 272.008 295.195 271.754 295.882C270.462 299.379 276.781 330.27 280.143 336.89C282.205 340.951 288.445 347.673 293.918 351.728C297.33 354.256 297.332 354.263 296.168 358.888C294.55 365.312 294.712 370.199 296.605 372.092C297.486 372.973 300.233 374.236 302.708 374.898L307.209 376.102L306.57 380.617C304.242 397.055 304.053 400.503 305.033 408.592C306.957 424.457 310.784 435.281 319.606 449.802C324.884 458.492 324.592 459.011 310.002 466.838C294.426 475.194 280.474 480.801 265.534 484.708C254.218 487.667 237.934 490.898 237.338 490.302C236.654 489.617 232.555 462.746 224.501 406.132C219.806 373.132 215.275 342.142 214.433 337.266C213.59 332.39 213.103 328.198 213.35 327.951C213.597 327.703 216.208 328.831 219.151 330.457C228.525 335.635 234.413 337.066 246.488 337.101C256.393 337.129 257.509 336.95 257.83 335.283C258.03 334.249 256.956 332.15 255.393 330.518L252.599 327.602L254.764 326.086C256.559 324.829 256.764 324.137 255.965 322.036C255.436 320.642 255.002 310.681 255.002 299.899V280.297L267.245 265.214C273.979 256.919 281.598 246.532 284.177 242.132C289.113 233.707 289.403 233.338 295.759 227.366C297.964 225.295 301.058 220.918 302.635 217.64C305.848 210.961 306.521 210.816 313.246 215.364ZM36.341 281.192C36.008 282.058 36.134 283.16 36.619 283.641C37.105 284.122 65.402 284.654 99.502 284.823L161.502 285.132V282.632V280.132L99.224 279.874C43.321 279.643 36.883 279.778 36.341 281.192ZM185.038 295.088C184.374 295.889 184.072 296.937 184.369 297.416C185.275 298.883 191.207 347.596 194.502 380.632C196.602 401.689 199.898 430.823 201.007 438.132C202.934 450.83 209.012 503.136 210.999 524.132C214.006 555.887 213.899 555.434 218.035 554.121C220.206 553.433 220.188 551.228 217.906 537.547C217.393 534.475 216.321 525.25 215.524 517.047C213.077 491.881 207.443 442.277 206.504 437.632C206.226 436.257 205.111 427.032 204.027 417.132C202.943 407.232 201.604 395.757 201.051 391.632C200.498 387.507 198.433 369.282 196.461 351.132C194.49 332.982 192.233 313.231 191.446 307.242C189.771 294.5 188.122 291.373 185.038 295.088ZM249.674 313.727C250.16 319.908 250.034 320.922 248.911 319.864C248.109 319.108 247.41 315.672 247.182 311.364C246.659 301.474 248.877 303.578 249.674 313.727ZM488.04 312.541C486.521 316.207 487.898 319.138 491.571 320.06C495.026 320.927 497.002 319.162 497.002 315.21C497.002 311.328 495.458 309.632 491.923 309.632C489.908 309.632 488.946 310.353 488.04 312.541ZM232.002 319.597C232.002 320.128 233.399 322.153 235.106 324.097C238.682 328.17 236.79 329.156 232.639 325.382C229.488 322.518 228.219 318.632 230.435 318.632C231.297 318.632 232.002 319.066 232.002 319.597ZM370.502 334.502C377.454 339.218 376.165 342.923 366.852 344.991C362.164 346.032 361.442 346.565 359.499 350.424C356.301 356.776 354.025 357.988 346.437 357.379C340.403 356.895 339.992 357.003 338.41 359.5C335.286 364.432 331.652 367.632 329.174 367.632C327.825 367.632 324.78 366.663 322.408 365.478L318.095 363.324L312.79 366.978C303.925 373.084 299.193 371.512 300.486 362.891C301.631 355.255 302.26 354.632 308.827 354.632C319.576 354.632 333.927 349.742 348.508 341.111C353.462 338.179 358.607 334.617 359.941 333.197C362.749 330.207 364.486 330.422 370.502 334.502ZM469.563 341.402C471 346.204 473.037 352.992 474.089 356.487C476.88 365.759 476.735 366.386 471.252 368.756C463.859 371.952 460.301 372.25 457.713 369.893C456.497 368.785 450.903 364.839 445.283 361.124L435.064 354.368L426.783 355.071C422.228 355.457 411.077 356.819 402.002 358.098C392.927 359.378 382.68 360.719 379.23 361.08L372.958 361.736L370.533 356.502C368.03 351.099 368.047 349.632 370.611 349.632C373.566 349.632 377.746 346.665 378.977 343.693C380.176 340.798 380.041 336.87 378.632 333.632C378.056 332.309 383.232 332.164 422.465 332.402L466.95 332.672L469.563 341.402ZM528.501 355.085C532.032 366.064 534.763 375.204 534.57 375.397C534.378 375.589 531.809 374.24 528.861 372.399C518.616 365.999 501.943 358.237 498.64 358.331C496.881 358.381 492.656 359.594 489.252 361.027C485.848 362.46 482.676 363.632 482.203 363.632C481.731 363.632 480.067 359.02 478.507 353.382C476.946 347.744 474.871 340.778 473.896 337.9L472.122 332.668L495.812 332.4C515.827 332.174 519.702 332.364 520.792 333.627C521.501 334.45 524.97 344.106 528.501 355.085ZM532.502 334.633C533.356 336.283 536.091 343.145 538.58 349.883C541.07 356.62 544.711 366.182 546.672 371.132C548.634 376.082 551.306 382.945 552.612 386.382L554.985 392.632H550.462C547.701 392.632 545.8 392.145 545.583 391.382C545.387 390.695 541.126 377.722 536.114 362.554C531.102 347.386 527.002 334.224 527.002 333.304C527.002 330.44 530.81 331.359 532.502 334.633ZM370.973 368.937C377.27 381.663 377.609 382.126 380.502 381.954C382.152 381.856 396.327 381.312 412.002 380.746C454.54 379.211 461.883 378.156 477.493 371.339C494.694 363.828 498.693 362.564 501.669 363.696C503.16 364.262 504.95 365.541 505.648 366.537C506.346 367.533 508.972 368.924 511.485 369.627C516.459 371.02 518.361 372.632 515.03 372.632C513.12 372.632 511.14 375.103 512.2 376.164C512.445 376.408 515.765 377.199 519.577 377.92C526.08 379.149 526.849 379.589 532.005 385.023C535.029 388.209 537.652 391.224 537.835 391.724C538.697 394.072 533.262 392.185 527.208 388.034C521.034 383.802 520.145 383.483 516.002 384.018C513.298 384.368 505.96 387.416 497.619 391.656C484.03 398.562 483.584 398.709 476.619 398.551C470.234 398.407 468.422 398.85 459.002 402.863C444.005 409.251 415.604 419.243 401.002 423.268C386.553 427.252 368.06 430.632 360.718 430.632C349.304 430.632 342.403 424.094 328.344 399.958C323.274 391.254 317.762 381.965 316.096 379.317C313.531 375.24 313.253 374.203 314.282 372.555C316.021 369.771 318.457 369.299 321.902 371.08C328.487 374.485 337.002 371.97 340.968 365.448C342.788 362.455 343.243 362.262 347.907 362.51C353.699 362.817 359.363 360.536 361.712 356.951C362.571 355.641 363.537 354.833 363.859 355.155C364.181 355.478 367.382 361.679 370.973 368.937ZM727.673 382.64C727.19 401.955 726.647 409.546 725.563 412.14L724.104 415.632H701.714H679.323L677.933 412.882C676.877 410.795 676.46 403.685 676.199 383.382L675.857 356.632H702.09H728.323L727.673 382.64ZM444.502 366.578L454.502 373.132L450.602 373.451C447.963 373.667 444.738 372.889 440.627 371.044C434.734 368.399 434.334 368.354 427.278 369.54C421.469 370.516 419.299 370.507 416.504 369.496C410.908 367.473 408.964 371.854 414.31 374.438C416.033 375.27 414.555 375.511 407.406 375.564C402.403 375.602 394.198 375.924 389.173 376.28L380.037 376.929L378.042 372.53C375.131 366.116 375.319 365.636 380.752 365.601C383.365 365.584 395.852 364.079 408.502 362.257C421.152 360.434 432.177 359.186 433.002 359.483C433.827 359.78 439.002 362.973 444.502 366.578ZM737.103 367.785C745.233 370.543 750.002 376.917 750.002 385.027C750.002 393.171 746.706 398.417 739.502 401.742C734.224 404.178 732.002 404.146 732.002 401.632C732.002 400.532 732.496 399.632 733.101 399.632C733.705 399.632 735.723 398.909 737.585 398.026C748.481 392.855 746.954 374.839 735.359 371.757C733.494 371.261 732.391 370.239 732.182 368.815C731.816 366.314 732.403 366.191 737.103 367.785ZM736.057 376.662C738.509 377.974 741.002 382.763 741.002 386.159C741.002 389.075 736.133 394.632 733.579 394.632C732.254 394.632 732.002 393.116 732.002 385.132C732.002 375.361 732.333 374.669 736.057 376.662ZM319.215 394.874C321.445 398.627 323.045 401.922 322.772 402.195C322.01 402.957 310.817 404.636 309.973 404.114C309.227 403.653 309.628 393.154 310.641 386.636L311.185 383.14L313.173 385.595C314.266 386.945 316.985 391.121 319.215 394.874ZM522.141 390.599L524.502 392.565L515.502 392.544L506.502 392.523L511.002 390.681C516.946 388.248 519.299 388.231 522.141 390.599ZM556.002 397.396C556.002 397.816 551.321 399.391 545.599 400.896C535.675 403.506 534.111 403.632 511.599 403.632C498.621 403.632 488.002 403.265 488.002 402.817C488.002 402.369 489.69 401.132 491.752 400.067C495.132 398.323 498.415 398.08 525.002 397.603C541.227 397.312 554.839 396.974 555.252 396.853C555.665 396.731 556.002 396.976 556.002 397.396ZM576.502 407.146V415.132L558.502 415.417C536.505 415.764 535.777 415.632 536.191 411.348L536.502 408.132L548.502 405.336C555.102 403.798 563.427 401.708 567.002 400.692C576.64 397.953 576.502 397.859 576.502 407.146ZM328.286 410.536C329.23 412.134 330.002 413.709 330.002 414.036C330.002 414.364 325.727 414.632 320.502 414.632C312.724 414.632 311.002 414.36 311.002 413.132C311.002 412.307 310.889 411.295 310.752 410.882C310.515 410.172 320.156 407.976 324.536 407.741C325.793 407.674 327.227 408.743 328.286 410.536ZM497.516 408.632C529.147 408.632 530.898 408.728 531.457 410.491C531.782 411.514 531.764 413.089 531.418 413.991C530.847 415.478 526.685 415.632 487.195 415.632C458.23 415.632 443.936 415.298 444.599 414.635C446.181 413.053 461.362 407.678 462.834 408.179C463.566 408.428 479.173 408.632 497.516 408.632ZM338.004 424.293C340.034 426.998 343.81 430.25 347.002 432.043C352.231 434.98 353.043 435.131 363.502 435.11C376.449 435.085 391.653 431.997 413.066 425.046L426.631 420.643L500.816 420.385C541.617 420.243 575.113 420.458 575.251 420.862C575.389 421.266 575.277 428.692 575.002 437.364L574.502 453.132L564.252 453.11C558.614 453.098 502.966 452.986 440.59 452.86L327.177 452.632L322.707 444.882C317.807 436.387 315.466 431.34 313.448 424.926L312.124 420.721L318.813 420.372C335.89 419.483 334.123 419.122 338.004 424.293ZM782.441 420.82C782.568 420.991 782.47 428.332 782.224 437.132L781.776 453.132L681.139 452.89L580.502 452.648L580.225 437.432C580.072 429.063 580.15 421.689 580.397 421.045C580.737 420.158 605.284 419.951 681.528 420.191C736.903 420.365 782.314 420.648 782.441 420.82ZM384.161 475.632C383.974 485.257 383.74 493.216 383.642 493.318C383.544 493.42 376.497 491.334 367.983 488.682C359.468 486.03 348.165 483.09 342.863 482.148L333.225 480.436L328.613 473.487C326.077 469.664 324.002 466.164 324.002 465.707C324.002 465.25 324.724 464.278 325.606 463.546C326.488 462.813 327.605 461.176 328.087 459.907L328.965 457.6L356.733 457.866L384.502 458.132L384.161 475.632ZM401.772 479.306L402.041 500.481L396.022 497.82L390.002 495.16V476.346V457.532L395.752 457.832L401.502 458.132L401.772 479.306Z" fill="black"/>
</g>
<defs>
<filter id="filter0_d_1_19" x="0" y="0" width="792.002" height="562.564" filterUnits="userSpaceOnUse" color-interpolation-filters="sRGB">
<feFlood flood-opacity="0" result="BackgroundImageFix"/>
<feColorMatrix in="SourceAlpha" type="matrix" values="0 0 0 0 0 0 0 0 0 0 0 0 0 0 0 0 0 0 127 0" result="hardAlpha"/>
<feOffset dy="4"/>
<feGaussianBlur stdDeviation="2"/>
<feComposite in2="hardAlpha" operator="out"/>
<feColorMatrix type="matrix" values="0 0 0 0 0 0 0 0 0 0 0 0 0 0 0 0 0 0 0.25 0"/>
<feBlend mode="normal" in2="BackgroundImageFix" result="effect1_dropShadow_1_19"/>
<feBlend mode="normal" in="SourceGraphic" in2="effect1_dropShadow_1_19" result="shape"/>
</filter>
</defs>
</svg>
